<?xml version="1.0" encoding="utf-8"?>
<!-- Generator: Adobe Illustrator 19.2.0, SVG Export Plug-In . SVG Version: 6.00 Build 0)  -->
<svg version="1.1" id="Layer_1" xmlns="http://www.w3.org/2000/svg" xmlns:xlink="http://www.w3.org/1999/xlink" x="0px" y="0px"
	 viewBox="0 0 512 512" style="enable-background:new 0 0 512 512;" xml:space="preserve">
<style type="text/css">
	.st0{fill:#436891;}
	.st1{fill:#2A3C76;}
	.st2{fill:#71E2EF;}
	.st3{fill:#38C6D9;}
	.st4{fill:#FFFFFF;}
	.st5{fill:#EDEDED;}
</style>
<circle class="st0" cx="256" cy="256" r="256"/>
<path class="st1" d="M91,335.1l176,176.6c117.5-5,214.6-89.1,239.1-200.5l-87.2-85.6L91,335.1z"/>
<path class="st2" d="M359.1,354.3c43.2,0,78.2-35,78.2-78.2c0-40.9-31.4-74.5-71.4-77.9c-3.4-40-37-71.4-77.9-71.4
	c-32.4,0-60.2,19.7-72.1,47.8c-5.4-1.4-11-2.2-16.8-2.2c-34.5,0-62.7,27.1-64.5,61.1c-33.1,0.3-59.9,27.2-59.9,60.4
	c0,33.4,27.1,60.4,60.4,60.4L359.1,354.3L359.1,354.3z"/>
<path class="st3" d="M365.9,198.1c-3.4-40-37-71.4-77.9-71.4c-1.3,0-2.6,0-3.8,0.1v227.5h75c43.2,0,78.2-35,78.2-78.2
	C437.3,235.1,405.9,201.6,365.9,198.1z"/>
<polygon class="st4" points="341.3,241.8 284.4,181.4 227.6,241.8 256,241.8 256,312.9 312.9,312.9 312.9,241.8 "/>
<polygon class="st5" points="284.4,181.4 284.2,181.7 284.2,312.9 312.9,312.9 312.9,241.8 341.3,241.8 "/>
</svg>
