<svg xmlns="http://www.w3.org/2000/svg" viewBox="0 0 512 512"><circle cx="256" cy="256" r="256" fill="#436891"/><path d="M91 335.1l176 176.6c117.5-5 214.6-89.1 239.1-200.5l-87.2-85.6L91 335.1z" fill="#2a3c76"/><path d="M359.1 354.3c43.2 0 78.2-35 78.2-78.2 0-40.9-31.4-74.5-71.4-77.9-3.4-40-37-71.4-77.9-71.4-32.4 0-60.2 19.7-72.1 47.8-5.4-1.4-11-2.2-16.8-2.2-34.5 0-62.7 27.1-64.5 61.1-33.1.3-59.9 27.2-59.9 60.4 0 33.4 27.1 60.4 60.4 60.4h224z" fill="#71e2ef"/><path d="M365.9 198.1c-3.4-40-37-71.4-77.9-71.4-1.3 0-2.6 0-3.8.1v227.5h75c43.2 0 78.2-35 78.2-78.2-.1-41-31.5-74.5-71.5-78z" fill="#38c6d9"/><path fill="#fff" d="M341.3 241.8l-56.9-60.4-56.8 60.4H256v71.1h56.9v-71.1z"/><path fill="#ededed" d="M284.4 181.4l-.2.3v131.2h28.7v-71.1h28.4z"/></svg>