<svg version="1.1" id="Layer_1" xmlns="http://www.w3.org/2000/svg" x="0" y="0" viewBox="0 0 512 512" xml:space="preserve"><style>.st6{fill:#68e8ed}</style><circle cx="256" cy="256" r="256" fill="#436891"/><path d="M510.2 225.8L369.8 85.3 142.2 426.7l83.5 83.5c9.9 1.2 20 1.8 30.2 1.8 141.4 0 256-114.6 256-256 .1-10.2-.5-20.3-1.7-30.2z" fill="#2a3c76"/><path fill="#fff" d="M142.2 85.3h227.6v341.3H142.2z"/><path fill="#e8e8e8" d="M255.4 85.3h114.3v341.3H255.4z"/><path fill="#5bc5ef" d="M170.7 113.8h170.7v85.3H170.7z"/><path fill="#32beed" d="M255.4 113.8h85.9v85.3h-85.9z"/><path class="st6" d="M308.6 216.9h32.8v102.7h-32.8z"/><path fill="#a1e4f3" d="M170.7 341.3h113.8v56.9H170.7z"/><path class="st6" d="M255.4 341.3h29v56.9h-29z"/><path d="M170.7 222.4h113.8v10.3H170.7zm0 28.4h113.8v10.3H170.7zm0 28.5h113.8v10.3H170.7zm137.9 62.9h32.8v10.3h-32.8zm0 22.4h32.8v10.3h-32.8zm0 22.4h32.8v10.3h-32.8zm-137.9-79.3h113.8V318H170.7z" fill="#366695"/></svg>