<?xml version="1.0" encoding="utf-8"?>
<!-- Generator: Adobe Illustrator 19.2.0, SVG Export Plug-In . SVG Version: 6.00 Build 0)  -->
<svg version="1.1" id="Layer_1" xmlns="http://www.w3.org/2000/svg" xmlns:xlink="http://www.w3.org/1999/xlink" x="0px" y="0px"
	 viewBox="0 0 512 512" style="enable-background:new 0 0 512 512;" xml:space="preserve">
<style type="text/css">
	.st0{fill:#436891;}
	.st1{fill:#2A3C76;}
	.st2{fill:#FFFFFF;}
	.st3{fill:#E8E8E8;}
	.st4{fill:#5BC5EF;}
	.st5{fill:#32BEED;}
	.st6{fill:#68E8ED;}
	.st7{fill:#A1E4F3;}
	.st8{fill:#366695;}
</style>
<circle class="st0" cx="256" cy="256" r="256"/>
<path class="st1" d="M510.2,225.8L369.8,85.3L142.2,426.7l83.5,83.5c9.9,1.2,20,1.8,30.2,1.8c141.4,0,256-114.6,256-256
	C512,245.8,511.4,235.7,510.2,225.8z"/>
<rect x="142.2" y="85.3" class="st2" width="227.6" height="341.3"/>
<rect x="255.4" y="85.3" class="st3" width="114.3" height="341.3"/>
<rect x="170.7" y="113.8" class="st4" width="170.7" height="85.3"/>
<rect x="255.4" y="113.8" class="st5" width="85.9" height="85.3"/>
<rect x="308.6" y="216.9" class="st6" width="32.8" height="102.7"/>
<rect x="170.7" y="341.3" class="st7" width="113.8" height="56.9"/>
<rect x="255.4" y="341.3" class="st6" width="29" height="56.9"/>
<g>
	<rect x="170.7" y="222.4" class="st8" width="113.8" height="10.3"/>
	<rect x="170.7" y="250.8" class="st8" width="113.8" height="10.3"/>
	<rect x="170.7" y="279.3" class="st8" width="113.8" height="10.3"/>
	<rect x="308.6" y="342.2" class="st8" width="32.8" height="10.3"/>
	<rect x="308.6" y="364.6" class="st8" width="32.8" height="10.3"/>
	<rect x="308.6" y="387" class="st8" width="32.8" height="10.3"/>
	<rect x="170.7" y="307.7" class="st8" width="113.8" height="10.3"/>
</g>
</svg>
