<svg id="Layer_1" data-name="Layer 1" xmlns="http://www.w3.org/2000/svg" viewBox="0 0 573.02 127.05"><defs><style>.cls-1{fill:none;}</style></defs><title>Untitled-1</title><g id="Logo_Final"><g id="Outer_Stroke" data-name="Outer Stroke"><path d="M551.52,21.5v84.05H21.5V21.5h530M573,0H0V127.05H573V0h0Z" transform="translate(0 0)"/></g><rect id="transparent_container" data-name="transparent container" class="cls-1" x="286.51" y="11.08" width="275.43" height="104.89"/><path id="NEWS_Compund_path" data-name="NEWS Compund path" d="M286.51,116H11.08V11.08H286.51V116ZM33.24,92.33H44.42V51.59L67.79,92.33h12V34.91H68.61v40l-22.79-40H33.24V92.33ZM133.5,34.91H91.4V92.33h43.51V82H103.12V67.25H131v-10H103.12V45.08H133.5V34.91Zm5.82,0,16.28,57.42h11.14l6.93-33.58,2-11.1,2,11.1,6.93,33.58h11.49l16.15-57.42H200.09l-7.65,33.23-1.77,8.8-1.75-9.16L182.1,34.91H169.44L163,68l-1.66,9-1.65-9.15-7.58-32.88H139.33Zm77.42,39.69q0,9,6.5,14.08t17.84,5.12q11.1,0,17.19-5.2a16.47,16.47,0,0,0,6.08-13.07q0-7.67-5.13-11.72-3.31-2.61-9.93-4.17l-10.08-2.38a34.77,34.77,0,0,1-7.63-2.38,4.92,4.92,0,0,1-2.79-4.6,5.92,5.92,0,0,1,2.83-5.22,13.61,13.61,0,0,1,7.59-1.87,15.87,15.87,0,0,1,7.15,1.44A8.22,8.22,0,0,1,251,52h11.53q-0.32-9.15-6.8-14A25.57,25.57,0,0,0,240,33.24q-11,0-16.68,5.1a16.5,16.5,0,0,0-5.68,12.82q0,8.45,5.8,12.43Q226.91,66,236.08,68l6.22,1.36a27.25,27.25,0,0,1,8,2.69,4.91,4.91,0,0,1,2.51,4.4q0,4.87-5.13,6.66a22,22,0,0,1-7,.93q-7.24,0-10.22-3.54a11.65,11.65,0,0,1-2.19-5.88H216.75Z" transform="translate(0 0)"/><g id="TEAM"><path d="M360.88,34.82V45H343.71V92.23H331.63V45H314.37V34.82h46.51Z" transform="translate(0 0)"/><path d="M410.35,45H380V57.18h27.89v10H380V81.91h31.79V92.23H368.25V34.82h42.11V45Z" transform="translate(0 0)"/><path d="M437.52,34.82H451.1l20.31,57.42h-13l-3.79-11.8H433.47l-3.89,11.8H417Zm-0.79,35.72h14.7l-7.25-22.59Z" transform="translate(0 0)"/><path d="M516.81,34.82h17.26V92.23H522.89V53.4q0-1.67,0-4.69T523,44L512.09,92.23H500.43L489.62,44q0,1.64,0,4.65t0,4.69V92.23H478.52V34.82H496L506.43,80Z" transform="translate(0 0)"/></g></g></svg>