<svg data-name="Layer 1" xmlns="http://www.w3.org/2000/svg" viewBox="0 0 573.02 127.05"><path d="M551.52 21.5v84.05H21.5V21.5h530M573 0H0v127.05h573V0z" data-name="Outer Stroke"/><path data-name="transparent container" fill="none" d="M286.51 11.08h275.43v104.89H286.51z"/><path data-name="NEWS Compund path" d="M286.51 116H11.08V11.08h275.43V116zM33.24 92.33h11.18V51.59l23.37 40.74h12V34.91H68.61v40l-22.79-40H33.24v57.42zM133.5 34.91H91.4v57.42h43.51V82h-31.79V67.25H131v-10h-27.88V45.08h30.38V34.91zm5.82 0l16.28 57.42h11.14l6.93-33.58 2-11.1 2 11.1 6.93 33.58h11.49l16.15-57.42h-12.15l-7.65 33.23-1.77 8.8-1.75-9.16-6.82-32.87h-12.66L163 68l-1.66 9-1.65-9.15-7.58-32.88h-12.78zm77.42 39.69q0 9 6.5 14.08t17.84 5.12q11.1 0 17.19-5.2a16.47 16.47 0 0 0 6.08-13.07q0-7.67-5.13-11.72-3.31-2.61-9.93-4.17l-10.08-2.38a34.77 34.77 0 0 1-7.63-2.38 4.92 4.92 0 0 1-2.79-4.6 5.92 5.92 0 0 1 2.83-5.22 13.61 13.61 0 0 1 7.59-1.87 15.87 15.87 0 0 1 7.15 1.44A8.22 8.22 0 0 1 251 52h11.53q-.32-9.15-6.8-14A25.57 25.57 0 0 0 240 33.24q-11 0-16.68 5.1a16.5 16.5 0 0 0-5.68 12.82q0 8.45 5.8 12.43Q226.91 66 236.08 68l6.22 1.36a27.25 27.25 0 0 1 8 2.69 4.91 4.91 0 0 1 2.51 4.4q0 4.87-5.13 6.66a22 22 0 0 1-7 .93q-7.24 0-10.22-3.54a11.65 11.65 0 0 1-2.19-5.88h-11.52z"/><path d="M360.88 34.82V45h-17.17v47.23h-12.08V45h-17.26V34.82h46.51zM410.35 45H380v12.18h27.89v10H380v14.73h31.79v10.32h-43.54V34.82h42.11V45zm27.17-10.18h13.58l20.31 57.42h-13l-3.79-11.8h-21.15l-3.89 11.8H417zm-.79 35.72h14.7l-7.25-22.59zm80.08-35.72h17.26v57.41h-11.18V48.71q0-3.02.11-4.71l-10.91 48.23h-11.66L489.62 44v48.23h-11.1V34.82H496L506.43 80z"/></svg>