<svg xmlns="http://www.w3.org/2000/svg" viewBox="0 0 447.778 447.778"><path fill="#666" d="M273.106 42.55h-13.092V13.092h-72.252V42.55h-13.091V0h98.435z"/><path d="M372.105 332.08v-.566c0-11.054-8.994-20.048-20.048-20.048H70.785c-5.809 0-10.534-4.726-10.534-10.534s4.725-10.534 10.534-10.534h72.451v-9.514H70.785c-11.054 0-20.048 8.994-20.048 20.048s8.994 20.048 20.048 20.048h281.271c5.809 0 10.534 4.726 10.534 10.534v50.322h9.514v-42.322l.001-7.434z" fill="gray"/><path fill="#29abe2" d="M264.497 278.565h-81.221v-34.907h81.221v34.907"/><path fill="#2c84aa" d="M264.497 243.658h-81.221v15.032h81.221v-15.032"/><path d="M325.557 290.397H122.219c0-4.587 1.864-8.741 4.864-11.75a16.602 16.602 0 0111.75-4.864h170.112c9.173.001 16.612 7.44 16.612 16.614" fill="#29abe2"/><path d="M308.944 273.784H222.74l5.067 16.613h97.751c-.001-9.174-7.44-16.613-16.614-16.613" fill="#6ec6eb"/><path d="M380.528 51.881v174.876s-187.884 2.75-188.264 3.744L67.247 247.565V51.881c0-6.259 5.074-11.333 11.334-11.333h290.614c6.259 0 11.333 5.074 11.333 11.333" fill="#29abe2"/><path d="M278.458 40.548h-83.775l2.086 6.84h65.57v8.962h16.119V40.548m90.737 0H355.36V56.35h9.366v.002h.251v80.158h15.55V51.881c.001-6.259-5.073-11.333-11.332-11.333" fill="#6ec6eb"/><path d="M281.514 243.148c-.259-.979-.545-.299-.861.38-.311.673-.651 1.346-1.016.406-8.011-20.521-28.167-34.306-50.16-34.306-18.432 0-35.119 9.138-44.989 24.246H83.048V56.35h281.678v186.799l-83.212-.001" fill="gray"/><path fill="#767676" d="M364.726 56.35h-9.365v21.642h9.365V56.35m-86.268 0h-16.119v21.642h16.119V56.35m-93.02 0H83.048v21.642h9.367V66.467h76.903v11.525h16.12V56.35"/><path fill="#ccc" d="M89.988 31.239h30.946v9.305H89.988zm236.853 0h30.946v9.305h-30.946z"/><path fill="#86d359" d="M92.415 209.343V66.467h76.903v142.876H92.415"/><path d="M147.712 201.166h-33.941c0-7.336-5.876-13.294-13.18-13.424V88.066c7.304-.131 13.18-6.088 13.18-13.425h33.941c0 7.419 6.012 13.431 13.431 13.431v99.664c-7.419 0-13.431 6.012-13.431 13.43" fill="#77bc4a"/><path d="M154.564 137.904c0-7.752-10.61-14.037-23.698-14.037-13.087 0-23.697 6.285-23.697 14.037 0 7.753 10.61 14.038 23.697 14.038 13.088 0 23.698-6.285 23.698-14.038m30.874 52.359V47.387h76.901v142.876h-76.901" fill="#86d359"/><path d="M240.733 182.086h-33.941c0-7.337-5.876-13.294-13.18-13.425V68.986c7.304-.131 13.18-6.088 13.18-13.425h33.941c0 7.418 6.012 13.43 13.431 13.43v99.664c-7.419.001-13.431 6.012-13.431 13.431" fill="#77bc4a"/><ellipse cx="223.888" cy="118.825" rx="23.697" ry="14.037" fill="#86d359"/><path fill="#86d359" d="M278.458 160.612V17.736h76.903v142.876h-76.903"/><path d="M333.755 152.436h-33.941c0-7.337-5.876-13.295-13.179-13.425V39.335c7.303-.13 13.179-6.088 13.179-13.425h33.941c0 7.419 6.012 13.431 13.43 13.431v99.664c-7.418 0-13.43 6.012-13.43 13.431" fill="#77bc4a"/><ellipse cx="316.91" cy="89.174" rx="23.697" ry="14.037" fill="#86d359"/><path fill="#29abe2" d="M404.521 169.698H43.255l23.988 79.692h313.289l23.989-79.692"/><path fill="#f2f2f2" d="M77.458 235.647l-15.715-52.206h324.289l-15.715 52.206z"/><path fill="#29abe2" d="M404.521 136.509H43.255v33.189h361.266v-33.189"/><path fill="#fff" d="M43.251 136.514v33.184l.004-33.184"/><path fill="#6ec6eb" d="M285.207 136.514H43.251l.004 33.184h361.271-109.213l-10.106-33.184"/><path fill="#fff" d="M404.526 136.514l-.005 33.184h.005v-33.184"/><path fill="#9dd8f1" d="M404.526 136.514H285.207l10.106 33.184h109.208v-33.184"/><path d="M95.77 113.817H82.434a6.327 6.327 0 00-6.327 6.327v30.196a6.327 6.327 0 006.327 6.327h13.337a6.327 6.327 0 006.327-6.327v-30.196a6.328 6.328 0 00-6.328-6.327z" fill="#fff"/><path d="M97.194 145.812l-5.803-10.05a5.78 5.78 0 10-4.578 0l-5.802 10.05h16.183z" fill="#666"/><path d="M365.342 113.817h-13.337a6.327 6.327 0 00-6.327 6.327v30.196a6.327 6.327 0 006.327 6.327h13.337a6.327 6.327 0 006.327-6.327v-30.196a6.327 6.327 0 00-6.327-6.327z" fill="#fff"/><path d="M366.765 145.812l-5.803-10.05a5.78 5.78 0 10-4.578 0l-5.803 10.05h16.184z" fill="#666"/><path d="M402.233 416.064h-69.771v4.914c0 14.801 11.999 26.8 26.8 26.8h16.171c14.801 0 26.8-11.999 26.8-26.8v-4.914" fill="#259bba"/><path d="M402.235 394.573v19.832c0 6.755-5.476 12.231-12.231 12.231h-45.308c-6.755 0-12.231-5.476-12.231-12.231v-19.832c0-19.271 15.614-34.885 34.885-34.885 7.77 0 14.948 2.537 20.741 6.829 8.583 6.364 14.144 16.555 14.144 28.056" fill="#29abe2"/><path d="M367.576 379.77h-.457a4 4 0 01-4-4v-15.962a4 4 0 014-4h.457a4 4 0 014 4v15.962a4 4 0 01-4 4z" fill="#f9de58"/><path d="M388.091 366.517s6.215 32.517-16.058 60.119h17.971c6.755 0 12.231-5.476 12.231-12.231v-19.832c0-11.501-5.561-21.692-14.144-28.056" fill="#6ec6eb"/></svg>