<svg xmlns="http://www.w3.org/2000/svg" viewBox="0 0 512 512"><path fill="#78b9eb" d="M369.694 377.042L256 180.12 142.308 377.042l-29.561-17.067L256 111.853l143.254 248.122z"/><path d="M386.844 168.397c0-24.642-16.472-47.085-40.054-54.577l-8.439-2.679-.427-8.844c-1.943-40.332-35.121-71.928-75.533-71.928-36.045 0-67.251 25.658-74.201 61.008l-1.711 8.703-8.757 1.412c-29.967 4.83-52.566 31.344-52.566 61.672 0 34.443 28.023 62.466 62.467 62.466h141.988c31.56.001 57.233-25.674 57.233-57.233z" fill="#aed5f3"/><path d="M346.79 113.82l-8.439-2.679-.427-8.844c-1.943-40.332-35.121-71.928-75.533-71.928-2.404 0-4.784.123-7.138.347v194.916h74.357c31.559 0 57.233-25.674 57.233-57.234.001-24.643-16.469-47.085-40.053-54.578z" fill="#93c7ef"/><path fill="#ffad41" d="M128.601 322.342l-22.756-34.133H0v193.422h238.933V322.342z"/><path fill="#ff9811" d="M128.601 322.342l2.243 159.289h108.089V322.342z"/><path fill="#ffad41" d="M401.667 322.342l-22.755-34.133H273.067v193.422H512V322.342z"/><path fill="#ff9811" d="M401.667 322.342l2.244 159.289H512V322.342z"/></svg>