<svg xmlns="http://www.w3.org/2000/svg" viewBox="0 0 512 512"><circle cx="256" cy="256" r="256" fill="#386895"/><path d="M290.147 75.812c-3.644 7.771-6.565 15.541-6.565 23.312-1.724 93.091-56.889 167.219-117.226 236.175-17.239 18.963-29.306 44.822-39.65 70.68-3.448 5.172-10.343 8.62-13.791 13.791-.507 1.521-.714 3.337-.888 5.146l78.664 78.664C211.542 509.066 233.427 512 256 512c128.212 0 234.408-94.253 253.083-217.25L290.147 75.812z" fill="#273b7a"/><path d="M341.333 256c0-94.256-38.205-199.111-85.333-199.111S170.667 161.744 170.667 256c0 22.849 24.371 42.953 28.444 112.916h113.778c4.073-69.963 28.444-90.067 28.444-112.916z" fill="#2ab2bc"/><path d="M341.333 256c0-94.256-38.205-199.111-85.333-199.111-.191 0-.383.017-.574.021v312.006h57.463c4.073-69.963 28.444-90.067 28.444-112.916z" fill="#88e8ed"/><path d="M170.667 256s-77.29 60.337-56.889 170.667l85.333-57.751S220.946 303.695 170.667 256z" fill="#98eff4"/><path d="M341.333 256s77.29 60.337 56.889 170.667l-85.333-57.751S291.054 303.695 341.333 256z" fill="#2ab2bc"/><path d="M256 284.444s61.485 81.311 0 170.667c0 0-56.313-91.655 0-170.667z" fill="#98eff4"/><path d="M256 284.444s61.485 81.311 0 170.667V284.444z" fill="#38c6d9"/><circle cx="256" cy="170.667" r="51.717" fill="#fff"/><path d="M256 228.417c-31.844 0-57.751-25.907-57.751-57.751s25.907-57.751 57.751-57.751 57.751 25.907 57.751 57.751-25.907 57.751-57.751 57.751zm0-103.434c-25.19 0-45.684 20.494-45.684 45.683S230.81 216.35 256 216.35s45.684-20.494 45.684-45.684S281.19 124.983 256 124.983z" fill="#366695"/><path d="M256 118.949c28.563 0 51.717 23.154 51.717 51.717S284.563 222.384 256 222.384V118.949z" fill="#dfeeef"/><path d="M256 112.916c-.193 0-.383.012-.574.016v12.067c.191-.002.381-.014.574-.014 25.19 0 45.684 20.494 45.684 45.683S281.19 216.352 256 216.352c-.193 0-.383-.012-.574-.014v12.067c.191.002.381.016.574.016 31.844 0 57.751-25.907 57.751-57.751S287.844 112.916 256 112.916z" fill="#273b7a"/></svg>